<svg xmlns="http://www.w3.org/2000/svg" viewBox="0 0 936 228"><g fill="currentColor"><path d="M775.3 22.8c-.6.4-3.3 6.6-6 13.7-5.2 13.5-39.2 100.3-51.9 132.5-5.4 13.6-7 18.6-6.1 19.2 2.1 1.3 20.3 1 21.4-.5.5-.6 12.2-30.5 25.8-66.2 13.7-35.8 25.6-66.9 26.5-69.2.8-2.3 1.8-4.5 2.1-4.8s2.9 5.7 5.6 13.3c2.8 7.5 9.4 25.1 14.7 39.1 5.3 13.9 9.6 25.9 9.6 26.7 0 1.2-4 1.4-23.3 1.4h-23.2l-2.9 7.7c-1.6 4.3-3.1 8.4-3.3 9-.4 1 6 1.3 30 1.3h30.6l2.1 5.7c1.2 3.2 4.7 12.5 7.7 20.8 3.1 8.2 6 15.3 6.6 15.6 1.5 1 22.7 1.1 22.7.1 0-.9-10.3-27.7-31.5-81.7-7.5-19.3-17.7-45.3-22.6-57.8S800.5 25 800 24c-1-1.8-2.2-2-12.3-2-6.2 0-11.7.4-12.4.8M885.7 22.6c-.4.4-.7 37.8-.7 83v82.3l3.3.6c1.7.3 6.6.5 10.7.3l7.5-.3v-166l-10.1-.3c-5.5-.1-10.3 0-10.7.4M78.5 61.4c-10.7 2.7-20.8 10.3-26.5 20l-3 5.1V63H29v62.4c0 56 .2 62.4 1.6 63 .9.3 5.4.6 10 .6 7.3 0 8.4-.2 8.6-1.8.1-.9.2-17.5.3-36.7.1-37.7.4-40.2 5.6-50.6 5.5-11 13.7-15.9 28.4-16.8l10-.6v-22l-5-.2c-2.7-.1-7.2.4-10 1.1M150.2 61.5c-28.2 6.1-45.4 30.2-45.6 63.5 0 21.1 5.3 36.6 17 48.9 11.1 11.8 24.1 17.1 42.6 17.1 12.2 0 18.3-1.3 27.8-5.8q15-7.05 23.1-23.7c5.7-11.8 5.8-11.5-6.1-11.5h-10l-2.5 5c-5.3 10.5-13 16.1-25.3 18.2-20.6 3.5-38.3-8-43.8-28.5-.8-2.9-1.4-6.9-1.4-9V132h96.3l-.6-10.8c-1-19.3-6.3-33.4-16.7-44.6-12.9-13.8-34-19.6-54.8-15.1m27.5 18.7c11.5 4.3 20.7 16.6 22 29.3l.6 5.5-3.4.1c-7 .1-52.8.1-61.8 0l-9.4-.1.7-4c2.3-14.6 11.8-26.9 23.8-31.1 7.6-2.6 20-2.5 27.5.3M277.5 61.5c-12.7 2.7-23 9.5-27.7 18.1-9.7 18-3.2 37.9 15.2 46.1 5.2 2.4 15.8 5.3 37 10.3 12.8 3 18.4 5.9 21 11 2.5 4.9 2.5 9.3.1 14.6-3.9 8.6-14.9 13-29.6 12.1-10.6-.6-17.7-3-22.7-7.5-4-3.6-8.8-12-8.8-15.5 0-1.5-1.2-1.7-10.5-1.7-11.8 0-11.2-.6-9.1 8.5 5.1 21.2 24.5 33.5 53 33.5 17.6 0 30.5-4.2 40-13.1 11.9-10.9 13.9-32.4 4.3-45.1-6.8-9-14.7-12.4-41.8-18.2-25.3-5.5-32.6-10.3-31.6-20.9.8-8.6 5.6-12.9 16.7-15.3 17.9-3.8 34.8 3.3 38.2 16.1l1.2 4.5h19.9l-.6-5.2c-1.3-11-9.7-22.7-20-28-10.6-5.4-30.5-7.3-44.2-4.3M557.8 61.9c-9.5 3.1-17 9-22.4 17.7l-2.3 3.9-.1-10.3V63h-20l.2 62.7.3 62.8 7.5.3c4.1.2 8.5.1 9.7-.2l2.1-.6.4-39.7c.4-33.2.7-40.8 2.1-45.6 3.4-11.6 8.4-18.3 16.7-22.1 6.5-3 19.9-2.9 25.5.1 5.2 2.8 7.9 5.7 10.7 11.8 2.3 4.9 2.3 5.7 2.8 50.5l.5 45.5h20l.5-42c.6-46.4.8-47.6 7.3-57.1 8.8-12.8 29.6-15.4 41.3-5.1 8.5 7.4 9.9 17.9 8.9 67.3l-.7 35.2 2.1 1.1c1.2.7 5.5 1.1 10.4.9l8.2-.3.3-44.5c.2-28.9-.1-46.8-.8-51-3.8-22.2-19.4-34-43.5-32.8C630.4 61 619 67 611.9 78l-3.3 5.1-1.9-3.8c-6.5-12.6-18.6-19.4-34.9-19.2-5.1 0-10.5.7-14 1.8M373 106.9c0 47.8.5 53.3 5.6 63.5 6.6 13.3 20.3 20.6 38.2 20.6 16.8-.1 27.2-4.6 36.8-16.1l3.4-4.1v8.6c0 10.1-.3 9.9 12.5 9.4l8-.3.3-62.8.2-62.7h-20.9l-.3 41.7c-.3 41.4-.3 41.9-2.7 47.7-4.9 12.3-14.8 19.4-28.1 20.3-18.3 1.3-29.4-7.5-32-25.4-.5-3.7-1-24.2-1-45.6V63h-20z"/></g></svg>
